<svg height='300px' width='300px'  fill="#FF3434" xmlns:dc="http://purl.org/dc/elements/1.1/" xmlns:cc="http://creativecommons.org/ns#" xmlns:rdf="http://www.w3.org/1999/02/22-rdf-syntax-ns#" xmlns:svg="http://www.w3.org/2000/svg" xmlns="http://www.w3.org/2000/svg" xmlns:sodipodi="http://sodipodi.sourceforge.net/DTD/sodipodi-0.dtd" xmlns:inkscape="http://www.inkscape.org/namespaces/inkscape" version="1.1" x="0px" y="0px" viewBox="0 0 100 100"><g transform="translate(0,-952.36218)"><path style="text-indent:0;text-transform:none;direction:ltr;block-progression:tb;baseline-shift:baseline;color:#000000;enable-background:accumulate;" d="m 9.0000868,963.36224 c -1.0426,-0.011 -2.0151,0.7671 -2,2 0.01,1.067 0.5926,1.9577 2,2 l 9.4375002,0 2.8125,11.1562 8.625,42.84376 54.25,0 8.875,-43.99996 -67.9375,0 -3.125,-12.5 c -0.2198,-0.8511 -1.0584,-1.5004 -1.9375,-1.5 l -11.0000002,0 z m 58.0000002,19 c 2.7614,0 5,2.2386 5,5 0,2.7614 -2.2386,5 -5,5 -1.1374,0 -2.1599,-0.3916 -3,-1.0312 l -12.0312,7.5312 c 0.017,0.1681 0.031,0.3274 0.031,0.5 0,0.1726 -0.014,0.3319 -0.031,0.5 l 12.0624,7.49996 c 0.8344,-0.6239 1.8471,-1 2.9688,-1 2.7614,0 5,2.2386 5,5 0,2.7614 -2.2386,5 -5,5 -2.7613,0 -5,-2.2386 -5,-5 0,-0.1726 0.014,-0.3319 0.031,-0.5 l -12.031,-7.5312 c -0.84,0.6396 -1.8625,1.0312 -3,1.0312 -2.7613,0 -5,-2.2386 -5,-4.99996 0,-2.7614 2.2387,-5 5,-5 1.1218,0 2.1344,0.3761 2.9688,1 l 12.0624,-7.5312 c -0.015,-0.158 -0.031,-0.307 -0.031,-0.4688 0,-2.7614 2.2386,-5 5,-5 z m -23.5,45.99996 c -3.5898,0 -6.5,2.9102 -6.5,6.5 0,3.5899 2.9102,6.5 6.5,6.5 3.5898,0 6.5,-2.9101 6.5,-6.5 0,-3.5898 -2.9102,-6.5 -6.5,-6.5 z m 27,0 c -3.5898,0 -6.5,2.9102 -6.5,6.5 0,3.5899 2.9102,6.5 6.5,6.5 3.5898,0 6.5,-2.9101 6.5,-6.5 0,-3.5898 -2.9102,-6.5 -6.5,-6.5 z" fill="#FF3434" fill-opacity="1" stroke="none" marker="none" visibility="visible" display="inline" overflow="visible"></path></g></svg>